<svg xmlns="http://www.w3.org/2000/svg" viewBox="0 0 192 192" width="192" height="192">
  <defs>
    <linearGradient id="bg" x1="0" y1="0" x2="1" y2="1">
      <stop offset="0%" stop-color="#0D4F2B"/>
      <stop offset="100%" stop-color="#083d20"/>
    </linearGradient>
    <linearGradient id="gold" x1="0" y1="0" x2="0" y2="1">
      <stop offset="0%" stop-color="#e8c76e"/>
      <stop offset="100%" stop-color="#D4A843"/>
    </linearGradient>
  </defs>
  <rect width="192" height="192" rx="38" fill="url(#bg)"/>
  <!-- Mosque dome -->
  <path d="M96 40 C96 40 62 68 62 88 C62 100 72 110 84 114 L84 148 L108 148 L108 114 C120 110 130 100 130 88 C130 68 96 40 96 40Z" fill="url(#gold)" opacity="0.9"/>
  <!-- Minaret left -->
  <rect x="48" y="100" width="8" height="48" rx="2" fill="url(#gold)" opacity="0.6"/>
  <rect x="46" y="94" width="12" height="8" rx="3" fill="url(#gold)" opacity="0.6"/>
  <!-- Minaret right -->
  <rect x="136" y="100" width="8" height="48" rx="2" fill="url(#gold)" opacity="0.6"/>
  <rect x="134" y="94" width="12" height="8" rx="3" fill="url(#gold)" opacity="0.6"/>
  <!-- Base -->
  <rect x="40" y="148" width="112" height="6" rx="3" fill="url(#gold)" opacity="0.7"/>
  <!-- Crescent -->
  <circle cx="96" cy="34" r="8" fill="#e8c76e"/>
  <circle cx="99" cy="33" r="6" fill="#0D4F2B"/>
</svg>
